<svg xmlns="http://www.w3.org/2000/svg" x="0px" y="0px" width="50" height="50" viewBox="0 0 48 48">
<path d="M42.074,13.292c-0.193-0.668-1.053-0.866-1.544-0.374c-2.708,2.708-5.228,5.228-5.527,5.527	c-1.69,1.69-4.56,1.481-5.958-0.626c-1.017-1.532-0.718-3.594,0.582-4.894l5.456-5.456c0.492-0.492,0.294-1.351-0.375-1.544	c-3.645-1.051-7.728-0.16-10.601,2.713c-3.041,3.041-3.874,7.442-2.525,11.241C17.484,23.979,7.452,34.011,6.854,34.609	c-1.911,1.911-1.799,5.079,0.336,6.843c1.862,1.537,4.634,1.261,6.341-0.446L28.12,26.417c3.799,1.349,8.2,0.516,11.241-2.525	C42.234,21.02,43.125,16.937,42.074,13.292z"></path>
</svg>